<?xml version="1.0" encoding="UTF-8" standalone="no"?>
<svg
   id="svg8"
   version="1.1"
   viewBox="0 0 250 132"
   height="132mm"
   width="250mm"
   xmlns="http://www.w3.org/2000/svg"
   xmlns:svg="http://www.w3.org/2000/svg"
   xmlns:rdf="http://www.w3.org/1999/02/22-rdf-syntax-ns#"
   xmlns:cc="http://creativecommons.org/ns#"
   xmlns:dc="http://purl.org/dc/elements/1.1/">
  <defs
     id="defs2">
    <marker
       orient="auto"
       refY="0"
       refX="0"
       id="Arrow2Mend"
       style="overflow:visible">
      <path
         id="path887"
         style="fill-rule:evenodd;stroke-width:0.625;stroke-linejoin:round"
         d="M 8.7185878,4.0337352 -2.2072895,0.01601326 8.7185884,-4.0017078 c -1.7454984,2.3720609 -1.7354408,5.6174519 -6e-7,8.035443 z"
         transform="scale(-0.6)" />
    </marker>
    <marker
       orient="auto"
       refY="0"
       refX="0"
       id="marker1138"
       style="overflow:visible">
      <path
         id="path1136"
         d="M 0,0 5,-5 -12.5,0 5,5 Z"
         style="fill:#000000;fill-opacity:1;fill-rule:evenodd;stroke:#000000;stroke-width:1pt;stroke-opacity:1"
         transform="matrix(-0.4,0,0,-0.4,-4,0)" />
    </marker>
    <marker
       orient="auto"
       refY="0"
       refX="0"
       id="Arrow1Mend"
       style="overflow:visible">
      <path
         id="path869"
         d="M 0,0 5,-5 -12.5,0 5,5 Z"
         style="fill:#000000;fill-opacity:1;fill-rule:evenodd;stroke:#000000;stroke-width:1pt;stroke-opacity:1"
         transform="matrix(-0.4,0,0,-0.4,-4,0)" />
    </marker>
  </defs>
  <metadata
     id="metadata5">
    <rdf:RDF>
      <cc:Work
         rdf:about="">
        <dc:format>image/svg+xml</dc:format>
        <dc:type
           rdf:resource="http://purl.org/dc/dcmitype/StillImage" />
        <dc:title />
      </cc:Work>
    </rdf:RDF>
  </metadata>
  <g
     style="display:inline"
     id="layer2">
    <path
       id="path953"
       d="m 190.85558,105.30915 c -14.91559,-8.912108 -32.458,-15.17777 -51.40917,-15.17777 -19.05618,0 -25.94988,13.62401 -40.549002,13.62401 -11.513423,0 -37.821117,-9.594333 -37.821117,-35.340882 0,-25.746545 25.002847,-34.834557 37.797743,-34.834557 14.220336,0 25.625616,13.037974 40.714396,13.097967 17.4873,0.06953 37.62873,-4.69553 53.2885,-16.104955"
       style="fill:none;stroke:#000000;stroke-width:0.365;stroke-linecap:butt;stroke-linejoin:miter;stroke-miterlimit:4;stroke-dasharray:1.46, 1.45999999999999996;stroke-dashoffset:0;stroke-opacity:0.40267321" />
  </g>
  <g
     id="layer1"
     transform="translate(-32.844932,15.551386)">
    <path
       style="font-weight:800;font-size:42.3333px;line-height:1.25;font-family:Metropolis;-inkscape-font-specification:'Metropolis Ultra-Bold';text-align:center;letter-spacing:0px;word-spacing:0px;text-anchor:middle;stroke-width:0.264583"
       d="M 75.747208,40.173096 V 33.696101 H 52.844891 V 62.779079 H 75.747208 V 56.302084 H 60.083886 V 51.179755 H 74.307875 V 44.70276 H 60.083886 v -4.529664 z m 18.965315,23.113983 c 4.529663,0 8.678327,-1.947332 11.556987,-5.037663 l -5.24933,-4.656663 c -1.566327,1.904999 -3.809992,3.132664 -6.307657,3.132664 -4.444997,0 -8.212661,-3.894663 -8.212661,-8.508993 0,-4.571997 3.767664,-8.466661 8.212661,-8.466661 2.455331,0 4.74133,1.227666 6.265327,3.132665 l 5.29166,-4.698997 c -2.87866,-3.047997 -7.027324,-4.995329 -11.556987,-4.995329 -8.46666,0 -15.620988,6.857995 -15.620988,15.028322 0,8.170327 7.154328,15.070655 15.620988,15.070655 z"
       id="text832"
       aria-label="EC" />
    <path
       style="font-weight:800;font-size:42.3333px;line-height:1.25;font-family:Metropolis;-inkscape-font-specification:'Metropolis Ultra-Bold';text-align:center;letter-spacing:0px;word-spacing:0px;text-anchor:middle;stroke-width:0.264583"
       d="m 125.50474,62.779079 h 7.239 V 40.173096 h 8.80532 v -6.476995 h -24.89198 v 6.476995 h 8.84766 z m 30.05665,-5.291662 c -2.32833,0 -4.06399,-1.481666 -4.74132,-3.682997 h 15.62098 c 0,-8.339661 -4.06399,-13.419657 -11.00666,-13.419657 -6.60399,0 -11.42999,4.74133 -11.42999,11.387658 0,6.730995 4.99533,11.514658 11.76866,11.514658 3.25967,0 7.02733,-1.396999 8.97466,-3.386664 l -4.23333,-4.275664 c -1.31233,1.143 -3.25966,1.862666 -4.953,1.862666 z m 0,-11.345325 c 2.159,0 3.64067,1.312332 4.23333,3.301997 h -8.88999 c 0.762,-2.031998 2.49767,-3.301997 4.65666,-3.301997 z m 23.11403,17.144987 c 5.63033,0 9.18632,-2.836331 9.18632,-7.238995 0,-4.995329 -4.36033,-6.265328 -8.25499,-7.196661 -2.58233,-0.677333 -3.51366,-0.888999 -3.51366,-1.862665 0,-0.677333 0.93133,-1.269999 2.24366,-1.269999 1.98967,0 4.36033,0.931333 6.26533,2.158998 l 2.62466,-4.698996 c -2.45533,-1.650999 -5.63033,-2.793998 -8.88999,-2.793998 -5.41866,0 -8.84766,3.132664 -8.84766,7.323661 0.0423,4.74133 3.97933,5.841996 8.21266,6.815662 2.159,0.507999 3.59833,0.931332 3.59833,1.989665 0,0.846666 -0.889,1.354665 -2.45533,1.354665 -2.62466,0 -5.41866,-1.058332 -7.45066,-2.497664 l -2.87867,4.61433 c 2.667,2.074331 6.477,3.301997 10.16,3.301997 z m 25.10364,-6.688662 c -0.42334,0.423333 -1.22767,0.719667 -2.032,0.719667 -1.143,0 -1.98967,-0.973666 -1.98967,-2.370665 v -8.339661 h 4.52967 v -5.714995 h -4.52967 v -6.011329 h -6.85799 v 6.011329 h -2.87867 v 5.714995 h 2.87867 v 9.651993 c 0,4.10633 2.87866,7.027328 6.98499,7.027328 1.86267,0 4.02167,-0.846666 5.334,-2.074332 z m 15.4093,0.889 c -2.32833,0 -4.064,-1.481666 -4.74133,-3.682997 h 15.62099 c 0,-8.339661 -4.064,-13.419657 -11.00666,-13.419657 -6.60399,0 -11.42999,4.74133 -11.42999,11.387658 0,6.730995 4.99533,11.514658 11.76866,11.514658 3.25966,0 7.02733,-1.396999 8.97466,-3.386664 l -4.23333,-4.275664 c -1.31233,1.143 -3.25967,1.862666 -4.953,1.862666 z m 0,-11.345325 c 2.159,0 3.64067,1.312332 4.23333,3.301997 h -8.88999 c 0.762,-2.031998 2.49766,-3.301997 4.65666,-3.301997 z m 21.75936,-1.185333 v -4.063996 h -7.15433 v 21.886316 h 7.15433 v -9.948325 l 0.0423,0.08467 c 0,-4.021663 2.70933,-6.561662 7.15433,-6.561662 v -5.968995 c -3.175,0 -5.75733,1.735665 -7.19666,4.571996 z"
       id="text832-2"
       aria-label="Tester" />
    <path
       style="fill:none;stroke:#000000;stroke-width:1.5;stroke-linecap:butt;stroke-linejoin:miter;stroke-miterlimit:4;stroke-dasharray:none;stroke-opacity:1;marker-end:url(#Arrow2Mend)"
       d="M 111.17603,96.586813 V 6.4351743"
       id="path856" />
    <path
       style="fill:none;stroke:#000000;stroke-width:1.5;stroke-linecap:butt;stroke-linejoin:miter;stroke-miterlimit:4;stroke-dasharray:none;stroke-opacity:1;marker-end:url(#marker1138)"
       d="M 83.348106,67.860214 H 259.44811"
       id="path858" />
    <circle
       style="fill:#000000;stroke-width:1.5;stroke-linecap:square;stroke-miterlimit:4;stroke-dasharray:none"
       id="path1242"
       cx="131.84666"
       cy="17.822157"
       r="2.3940837" />
    <circle
       r="2.3940837"
       cy="31.304388"
       cx="172.33257"
       id="path1242-2"
       style="fill:#000000;stroke-width:1.5;stroke-linecap:square;stroke-miterlimit:4;stroke-dasharray:none" />
    <circle
       r="5.1091008"
       cy="16.69183"
       cx="223.64252"
       id="path1242-7"
       style="fill:#000000;stroke-width:1.5;stroke-linecap:square;stroke-miterlimit:4;stroke-dasharray:none" />
    <ellipse
       cy="-87.85804"
       cx="131.76807"
       id="path1242-6"
       style="fill:#000000;stroke-width:1.5;stroke-linecap:square;stroke-miterlimit:4;stroke-dasharray:none"
       transform="scale(1,-1)"
       rx="2.3940837"
       ry="2.3952644" />
    <ellipse
       style="fill:#000000;stroke-width:1.5;stroke-linecap:square;stroke-miterlimit:4;stroke-dasharray:none"
       id="path1242-2-1"
       cx="172.25397"
       cy="-74.369148"
       transform="scale(1,-1)"
       rx="2.3940837"
       ry="2.3952644" />
    <ellipse
       style="fill:#000000;stroke-width:1.5;stroke-linecap:square;stroke-miterlimit:4;stroke-dasharray:none"
       id="path1242-7-3"
       cx="223.56392"
       cy="-88.988922"
       transform="scale(1,-1)"
       rx="5.1091008"
       ry="5.1116204" />
    <circle
       style="fill:#000000;stroke-width:1.5;stroke-linecap:square;stroke-miterlimit:4;stroke-dasharray:none"
       id="path1242-2-2"
       cx="94.490883"
       cy="48.575287"
       r="4.2930355" />
  </g>
</svg>
