<?xml version="1.0" encoding="UTF-8" standalone="no"?>
<svg
   width="120mm"
   height="105mm"
   viewBox="0 0 120 105"
   version="1.1"
   id="svg8"
   xmlns="http://www.w3.org/2000/svg"
   xmlns:svg="http://www.w3.org/2000/svg"
   xmlns:rdf="http://www.w3.org/1999/02/22-rdf-syntax-ns#"
   xmlns:cc="http://creativecommons.org/ns#"
   xmlns:dc="http://purl.org/dc/elements/1.1/">
  <defs
     id="defs2">
    <marker
       style="overflow:visible"
       id="marker1138"
       refX="0"
       refY="0"
       orient="auto">
      <path
         transform="matrix(-0.4,0,0,-0.4,-4,0)"
         style="fill:#000000;fill-opacity:1;fill-rule:evenodd;stroke:#000000;stroke-width:1pt;stroke-opacity:1"
         d="M 0,0 5,-5 -12.5,0 5,5 Z"
         id="path1136" />
    </marker>
    <marker
       style="overflow:visible"
       id="Arrow1Mend"
       refX="0"
       refY="0"
       orient="auto">
      <path
         transform="matrix(-0.4,0,0,-0.4,-4,0)"
         style="fill:#000000;fill-opacity:1;fill-rule:evenodd;stroke:#000000;stroke-width:1pt;stroke-opacity:1"
         d="M 0,0 5,-5 -12.5,0 5,5 Z"
         id="path869" />
    </marker>
  </defs>
  <metadata
     id="metadata5">
    <rdf:RDF>
      <cc:Work
         rdf:about="">
        <dc:format>image/svg+xml</dc:format>
        <dc:type
           rdf:resource="http://purl.org/dc/dcmitype/StillImage" />
        <dc:title />
      </cc:Work>
    </rdf:RDF>
  </metadata>
  <g
     id="layer1"
     transform="translate(-80.653043,4.349209)">
    <path
       id="path856"
       d="M 111.17603,76.968323 V 18.606813"
       style="fill:none;stroke:#000000;stroke-width:1.5;stroke-linecap:butt;stroke-linejoin:miter;stroke-miterlimit:4;stroke-dasharray:none;stroke-opacity:1;marker-end:url(#Arrow1Mend)" />
    <path
       id="path858"
       d="M 102.12696,67.860211 H 178.2659"
       style="fill:none;stroke:#000000;stroke-width:1.5;stroke-linecap:butt;stroke-linejoin:miter;stroke-miterlimit:4;stroke-dasharray:none;stroke-opacity:1;marker-end:url(#marker1138)" />
    <path
       style="font-weight:800;font-size:42.3333px;line-height:1.25;font-family:Metropolis;-inkscape-font-specification:'Metropolis Ultra-Bold';text-align:center;letter-spacing:0px;word-spacing:0px;text-anchor:middle;stroke-width:0.264583"
       d="M 140.86295,38.136986 V 31.659991 H 117.96064 V 60.74297 h 22.90231 v -6.476996 h -15.66332 v -5.122329 h 14.22399 V 42.66665 h -14.22399 v -4.529664 z m 18.96532,23.113983 c 4.52966,0 8.67833,-1.947332 11.55699,-5.037663 l -5.24933,-4.656663 c -1.56633,1.904999 -3.81,3.132664 -6.30766,3.132664 -4.445,0 -8.21266,-3.894663 -8.21266,-8.508993 0,-4.571997 3.76766,-8.466661 8.21266,-8.466661 2.45533,0 4.74133,1.227666 6.26533,3.132665 l 5.29166,-4.698997 c -2.87866,-3.047997 -7.02733,-4.995329 -11.55699,-4.995329 -8.46666,0 -15.62099,6.857995 -15.62099,15.028322 0,8.170327 7.15433,15.070655 15.62099,15.070655 z"
       id="text832"
       aria-label="EC" />
    <circle
       style="fill:#000000;stroke-width:1.5;stroke-linecap:square;stroke-miterlimit:4;stroke-dasharray:none"
       id="path1242-2-2"
       cx="159.60663"
       cy="46.539173"
       r="4.293036" />
    <circle
       r="2.1179466"
       cy="73.956909"
       cx="150.5054"
       id="path1242-7"
       style="fill:#000000;stroke-width:1.5;stroke-linecap:square;stroke-miterlimit:4;stroke-dasharray:none" />
    <circle
       r="2.3940837"
       cy="46.847286"
       cx="103.04713"
       id="path1242-2"
       style="fill:#000000;stroke-width:1.5;stroke-linecap:square;stroke-miterlimit:4;stroke-dasharray:none" />
    <circle
       style="fill:#000000;stroke-width:1.5;stroke-linecap:square;stroke-miterlimit:4;stroke-dasharray:none"
       id="path1242-7-4"
       cx="122.7803"
       cy="20.712618"
       r="3.1178663" />
    <circle
       r="3.1178663"
       cy="76.54921"
       cx="123.34673"
       id="path1242-7-4-9"
       style="fill:#000000;stroke-width:1.5;stroke-linecap:square;stroke-miterlimit:4;stroke-dasharray:none" />
    <circle
       style="fill:#000000;stroke-width:1.5;stroke-linecap:square;stroke-miterlimit:4;stroke-dasharray:none"
       id="path1242-7-9"
       cx="150.48138"
       cy="26.262817"
       r="2.1179466" />
  </g>
</svg>
