<?xml version="1.0" encoding="UTF-8" standalone="no"?>
<!-- Created with Inkscape (http://www.inkscape.org/) -->

<svg
   width="271.03601mm"
   height="97.467697mm"
   viewBox="0 0 542.07203 194.93541"
   version="1.1"
   id="svg8"
   style="enable-background:new"
   xmlns="http://www.w3.org/2000/svg"
   xmlns:svg="http://www.w3.org/2000/svg"
   xmlns:rdf="http://www.w3.org/1999/02/22-rdf-syntax-ns#"
   xmlns:cc="http://creativecommons.org/ns#"
   xmlns:dc="http://purl.org/dc/elements/1.1/">
  <defs
     id="defs2" />
  <metadata
     id="metadata5">
    <rdf:RDF>
      <cc:Work
         rdf:about="">
        <dc:format>image/svg+xml</dc:format>
        <dc:type
           rdf:resource="http://purl.org/dc/dcmitype/StillImage" />
      </cc:Work>
    </rdf:RDF>
  </metadata>
  <g
     id="layer5"
     style="display:none">
    <rect
       style="opacity:1;fill:#ffffff;fill-opacity:1;stroke:none;stroke-width:4.43691;stroke-linecap:round;stroke-linejoin:round;stroke-miterlimit:4;stroke-dasharray:none;stroke-dashoffset:0;stroke-opacity:1;paint-order:normal"
       id="rect1007"
       width="164"
       height="164"
       x="0"
       y="-0.30197144" />
  </g>
  <g
     id="layer1"
     transform="translate(-25.307238,-103.83701)"
     style="display:inline">
    <rect
       style="opacity:1;fill:none;fill-opacity:1;stroke:#000000;stroke-width:21.201;stroke-linecap:round;stroke-linejoin:round;stroke-miterlimit:4;stroke-dasharray:none;stroke-dashoffset:0;stroke-opacity:1;paint-order:normal"
       id="rect819"
       width="142.49702"
       height="142.49702"
       x="35.907738"
       y="114.43751" />
  </g>
  <g
     id="layer2"
     style="display:none">
    <path
       transform="translate(-25.307238,-103.83701)"
       style="fill:none;stroke:#000000;stroke-width:8.565;stroke-linecap:butt;stroke-linejoin:miter;stroke-miterlimit:4;stroke-dasharray:none;stroke-opacity:1"
       d="M 90.604368,149.7345 76.171815,136.37102"
       id="path827" />
    <path
       transform="translate(-25.307238,-103.83701)"
       style="fill:none;stroke:#000000;stroke-width:8.565;stroke-linecap:butt;stroke-linejoin:miter;stroke-miterlimit:4;stroke-dasharray:none;stroke-opacity:1"
       d="M 105.30419,144.12183 98.889727,131.82744"
       id="path829" />
    <path
       transform="translate(-25.307238,-103.83701)"
       style="fill:none;stroke:#000000;stroke-width:8.565;stroke-linecap:butt;stroke-linejoin:miter;stroke-miterlimit:4;stroke-dasharray:none;stroke-opacity:1"
       d="m 148.06732,161.22708 9.08717,-11.75985"
       id="path829-5" />
  </g>
  <g
     id="layer3"
     style="display:none">
    <path
       transform="translate(-25.307238,-103.83701)"
       style="display:inline;fill:none;stroke:#000000;stroke-width:10.365;stroke-linecap:square;stroke-linejoin:miter;stroke-miterlimit:5;stroke-dasharray:none;stroke-opacity:1;paint-order:normal"
       d="m 124.57069,145.79633 c -13.59015,24.99089 -34.272512,28.53147 -41.740404,36.4283 -27.857184,29.45723 -1.889805,49.51481 -1.889805,49.51481 0,0 16.829946,12.09065 51.971869,0.28318 38.2483,-12.85119 11.52849,-35.15156 1.51213,-43.65603 -8.47875,-7.19895 -7.05334,-31.75385 -9.85379,-42.57026 z"
       id="path823" />
    <path
       transform="translate(-25.307238,-103.83701)"
       style="display:inline;fill:none;stroke:#000000;stroke-width:8.565;stroke-linecap:butt;stroke-linejoin:miter;stroke-miterlimit:4;stroke-dasharray:none;stroke-opacity:1"
       d="m 91.406176,236.59708 c 0,0 -32.852656,-8.23225 -34.477768,-29.13237 -1.545853,-19.88079 17.372518,-20.31249 22.450639,-39.02136 0,0 4.009045,11.22533 0.534542,16.03618"
       id="path852" />
    <path
       transform="translate(-25.307238,-103.83701)"
       style="display:inline;fill:none;stroke:#000000;stroke-width:8.765;stroke-linecap:butt;stroke-linejoin:miter;stroke-miterlimit:4;stroke-dasharray:none;stroke-opacity:1"
       d="m 93.945237,235.26073 c 0,0 -11.480666,-4.77427 -4.458107,-15.24432 4.677783,-6.97419 17.06644,-4.57321 24.20804,-19.96463 0.70456,6.61507 0.85529,14.41409 4.48429,19.98478 1.70465,2.61673 2.22223,8.40278 -0.86282,12.28624 -2.86604,2.43158 -5.12129,3.32099 -11.69491,5.01078 z"
       id="path879" />
  </g>
  <g
     id="layer4"
     style="display:none">
    <path
       style="fill:#000000;fill-opacity:1;stroke:#000000;stroke-width:5.765;stroke-linecap:round;stroke-linejoin:miter;stroke-miterlimit:4;stroke-dasharray:none;stroke-opacity:1"
       d="m 80.86791,138.29534 c 30.04911,-0.0945 43.77808,-13.86098 44.15606,-38.80741 C 125.22153,86.44925 122.43741,79.357919 111.62154,68.4251 109.97763,93.694151 99.785704,95.662312 99.785704,95.662312 111.02107,62.159426 85.044643,31.59535 61.988095,31.784339 c 16.252977,19.654762 8.126488,37.797617 2.645834,56.129463 0,0 0.94494,-20.694198 -9.260418,-32.033482 -0.789232,3.214288 0.352439,3.165163 0.43056,8.332912 0.222872,14.743215 -18.183401,23.562286 -17.823027,44.416548 0,12.88033 12.837758,29.76006 42.886866,29.66556 z"
       id="path1004" />
    <path
       style="fill:#ffffff;fill-opacity:1;stroke:none;stroke-width:0.264583px;stroke-linecap:butt;stroke-linejoin:miter;stroke-opacity:1"
       d="m 79.563988,141.01945 c 8.82753,-0.50414 21.710722,-12.25966 16.252975,-19.37128 -6.236605,-8.12649 -11.675001,-17.33745 -9.54668,-27.056086 -5.378153,6.434136 -8.735374,16.669276 -6.845494,26.118676 2.445073,12.22537 -10.06616,2.26623 -10.266612,-4.81642 -5.679478,7.2831 -15.25129,16.06568 -4.524249,22.00681 6.142114,3.40178 9.222587,3.44425 14.93006,3.1183 z"
       id="path1009" />
  </g>
  <g
     style="display:inline"
     id="g910">
    <path
       d="m 307.34012,137.27133 c 0.60905,0 1.47912,0.69605 2.00116,1.47912 0.52204,0.87007 0.43504,1.56613 -0.17401,1.56613 h -7.48262 l -18.27151,32.71471 3.21926,-0.17402 c 0.60905,0 1.47912,0.60905 2.00117,1.47912 0.52204,0.78307 0.43503,1.47913 -0.17402,1.56613 l -7.04758,0.34803 c -0.43504,0 -0.95708,-0.26102 -1.47912,-0.69605 -0.69606,-0.69606 -1.1311,-1.65314 -0.87008,-2.08818 l 20.09867,-35.93397 c 0,-0.17402 0.17401,-0.26102 0.43503,-0.26102 z m -11.31088,50.63819 c 0.52204,-0.87007 4.43737,-7.74364 5.30744,-9.39678 0.60905,-1.13109 1.39211,-2.34919 2.08817,-3.74131 4.87241,-9.22276 12.094,-22.53486 16.70539,-23.14392 5.82948,-0.78306 6.96057,5.82949 4.69838,10.44087 -1.74014,4.61138 -6.00349,9.39678 -8.26568,9.39678 -2.61022,0 -4.52437,-1.65314 -5.65547,-3.30628 -3.30627,5.39445 -9.6578,16.96641 -12.26801,21.7518 l -0.69606,1.2181 c -0.43504,1.56613 -1.13109,3.13226 -2.00117,3.65431 -2.00116,1.13109 -3.13226,-4.26336 -2.34919,-8.70072 0.87007,-4.52438 19.22859,-39.50127 20.01166,-40.80638 0.43503,-0.78307 3.91532,1.2181 3.56729,1.74014 z m 26.10216,-33.23675 c -2.34919,0.26102 -6.0905,5.22043 -10.09283,11.57195 0.34802,0.69606 1.2181,2.17518 2.78423,2.17518 1.74014,0 4.78539,-4.69838 6.43853,-9.04874 0.52204,-1.30511 0.95708,-2.43621 1.13109,-3.48029 0.087,-0.95708 0,-1.65314 -0.17401,-1.91416 -0.26102,-0.43504 0.17401,0.60905 -0.087,0.69606 z m 13.74706,-2.26219 c 0.43504,-0.34803 1.30511,0 2.00116,0.78306 0.69606,0.78307 0.95708,1.65314 0.52205,2.00117 -1.91416,1.65314 -5.04642,5.39445 -6.96058,9.04875 -1.2181,2.4362 -1.13109,3.82832 -0.26102,4.26335 3.5673,0.52205 13.22509,-8.87473 13.22509,-8.96174 0.34803,-0.34803 0.95708,-1.04409 1.65314,-0.26102 0.78307,0.78306 0.43504,1.04409 0.087,1.39211 -0.087,0 -14.5302,15.6613 -18.27151,9.13576 -1.2181,-2.17518 -0.60905,-5.13342 0.87007,-8.09167 1.91416,-3.74131 5.13342,-7.65663 7.13459,-9.30977 z m 5.39445,-2.52321 c -0.34803,0.43504 -1.21811,0.087 -1.91416,-0.60905 -0.69606,-0.78306 -1.04409,-1.65314 -0.69606,-2.08817 l 4.8724,-5.56846 c 0.34803,-0.43504 1.1311,-0.087 1.91416,0.60905 0.69606,0.78306 0.95708,1.65313 0.69606,2.08817 z m 6.61262,8.78773 c 1.21811,-0.34803 2.52321,-0.87007 3.91533,-1.47912 1.82715,-0.95708 3.39328,-2.78423 4.35036,-4.43737 0.17401,-0.34803 0.26102,-0.60905 0.43503,-0.95708 -0.95707,0.43504 -2.08817,1.13109 -3.39328,2.08817 -1.74014,1.30511 -3.74131,2.95825 -5.30744,4.7854 z m 6.17752,1.39211 c -4.08934,2.08818 -8.70072,2.61022 -8.96175,2.61022 -5.91649,12.70305 17.57546,1.91416 20.27268,-2.95825 0.26102,-0.52204 1.1311,-1.13109 1.91416,-0.43503 0.69606,0.69606 0.69606,1.04409 0.43504,1.56613 -2.43621,4.26335 -16.00933,13.66013 -22.01283,10.26685 -2.95824,-1.65314 -4.78539,-5.13343 -4.08933,-8.52671 0.43503,-2.17518 1.74014,-4.43736 3.48028,-6.43853 1.74015,-1.91416 3.74131,-3.74131 5.65547,-5.13343 2.52321,-1.74014 4.87241,-2.78423 5.82948,-2.61021 0.78307,0.17401 1.47913,0.60905 2.08818,1.30511 0.87007,0.95708 1.2181,2.08817 1.04408,3.13226 -0.087,0.78306 -0.43503,1.56613 -0.87007,2.4362 -0.95708,1.82715 -2.69722,3.74131 -4.78539,4.78539 z m 35.9339,-39.8493 c 0.26102,-0.34802 1.13109,-0.17401 1.82715,0.60906 0.69606,0.69605 1.04409,1.65313 0.78307,2.00116 0,0.087 -6.35153,8.87474 -13.13809,19.05458 h 22.18684 c 0.60905,0 1.56613,0.69606 2.00116,1.47912 0.52204,0.87007 0.43504,1.56613 -0.17401,1.56613 h -26.01516 c -1.82715,2.78423 -3.6543,5.65547 -5.39444,8.4397 v 0.087 c 0,0.34802 -0.17402,0.52204 -0.34803,0.52204 -5.30744,8.61371 -8.17868,13.57312 -7.2216,15.31327 1.56613,2.95824 19.22859,-11.13692 19.22859,-11.22393 0.34803,-0.26102 0.87007,-0.43504 1.56613,0.34803 0.69606,0.78306 0.17402,1.2181 -0.17401,1.47912 -0.087,0.087 -19.83764,19.57662 -24.101,11.74597 -1.30511,-2.4362 2.69723,-10.78889 8.26569,-20.01166 -0.087,0 0.52204,-0.95707 0.52204,-0.95707 0.17401,-6.61255 -22.09983,-5.74248 -22.09983,-5.74248 -0.60905,0 -1.56613,-0.69606 -2.00117,-1.56613 -0.52204,-0.78306 -0.43503,-1.47912 0.17402,-1.47912 h 29.40843 c 7.30861,-11.39795 14.61721,-21.57779 14.70422,-21.6648 z m -19.22859,28.8864 c 0.87007,-1.39212 1.74014,-2.78423 2.61022,-4.17635 l -10.87591,-0.43504 c 2.61022,1.04409 6.87357,2.78423 8.26569,4.61139 z m 12.96402,13.05108 c -0.34803,0.34803 -1.39212,0.87007 -2.08817,0.17401 -0.69606,-0.78306 1.13109,-2.34919 1.47912,-2.69722 l 6.52554,-7.91766 c 1.13109,-1.2181 2.00117,-1.91416 2.00117,-1.91416 0.34802,-0.34803 1.2181,0 1.82715,0.78307 0.69605,0.69606 1.04408,1.65314 0.69605,2.00116 l -2.08817,2.00117 c -1.82715,2.08817 -4.26335,5.82948 -3.30627,9.83181 0.52204,2.52321 0.26102,4.52438 -0.43504,6.0035 -0.43503,0.78307 -1.04408,1.39212 -1.65314,1.91416 -0.60905,0.43504 -1.3051,0.78306 -2.00116,0.95708 -1.2181,0.26102 -2.4362,0.087 -3.39328,-0.43504 -4.95941,-2.52321 -2.26219,-7.39561 -2.26219,-7.48262 0.26102,-0.43503 1.04409,-0.26102 1.82715,0.43504 0.78307,0.69606 1.1311,1.65314 0.95708,2.08817 0,0.087 -1.2181,2.26219 -1.04408,2.3492 0.34802,0.17401 1.04408,0.17401 1.74014,0 0.60905,-0.087 1.2181,-0.34803 1.74014,-0.78307 0.52205,-0.34803 1.04409,-0.95708 1.30511,-1.56613 0.60905,-1.2181 0.87007,-2.78423 0.43504,-4.78539 0,-1.1311 -0.78307,-1.21811 1.30511,-5.04642 z m 33.75878,-36.71704 c 0.34803,-0.43504 1.1311,-0.17402 1.91416,0.52204 0.69606,0.69606 1.04409,1.65314 0.78307,2.08817 l -16.61838,25.92815 c 3.82832,-3.30627 8.09167,-6.26452 12.52904,-7.91766 0.52204,-0.17401 1.39211,0.34803 2.00117,1.1311 0.60905,0.78306 0.69605,1.65313 0.26102,1.82715 -5.04642,1.91416 -9.83182,5.48145 -14.09517,9.30977 -0.26102,1.2181 -2.17518,9.39678 0.87007,10.70189 4.7854,2.08817 18.61954,-9.74481 18.70655,-9.74481 0.34803,-0.34803 1.39212,-1.47912 2.08817,-0.69606 0.69606,0.78307 0.69606,1.2181 0.34803,1.56613 -0.087,0.087 -14.44319,14.26918 -20.44669,11.65897 -4.08934,-1.82716 -5.04642,-6.26452 -5.04642,-10.09284 -6.52554,6.78656 -10.8759,13.48612 -10.8759,13.57312 -0.26102,0.34803 -1.13109,0.17402 -1.82715,-0.60905 -0.78306,-0.69605 -1.13109,-1.56613 -0.87007,-2.00116 l 0.17401,-0.26102 z m 21.31672,32.27967 c 0.34803,0.87007 0.087,1.39211 -0.60905,1.2181 -0.69606,-0.17401 -1.56613,-0.95708 -1.91416,-1.74014 -1.74014,-1.65314 -6.0035,0.34802 -7.56963,1.65313 -3.21926,2.61022 -5.04641,5.74248 -6.00349,9.74481 3.04525,-0.87007 10.9629,-10.09284 10.9629,-10.09284 0.34803,-0.34802 1.1311,-0.087 1.91416,0.69606 0.60905,0.69606 0.95708,1.47912 0.69606,1.91416 -0.17401,0.43504 -1.2181,2.69722 -0.69606,5.13342 0.34803,2.08818 11.65897,-7.39561 11.83298,-7.48261 0.34803,-0.34803 1.04409,-0.78307 1.74015,-0.087 0.69605,0.78306 0.60905,1.47912 0.26102,1.82715 -5.74248,5.13342 -9.13576,8.17868 -11.48495,9.39678 -4.00233,2.08817 -7.04759,0.87007 -6.96058,-3.39328 -3.13226,2.95824 -6.35152,5.65546 -8.26568,4.78539 -0.69606,-0.26102 -1.2181,-0.78306 -1.74015,-1.30511 -0.87007,-1.13109 -1.2181,-2.34919 -1.04408,-3.6543 0.087,-1.04408 0.43503,-2.17518 0.95708,-3.30627 1.13109,-2.4362 3.13226,-5.13343 5.39444,-6.96058 3.91533,-3.21926 11.04992,-3.39328 12.52904,1.65314 z m 3.39325,19.22859 c -0.60905,0 -1.47912,-0.60905 -2.00117,-1.47912 -0.52204,-0.87007 -0.43503,-1.47912 0.17402,-1.47912 h 7.48262 l 18.27151,-32.80172 -3.21927,0.17402 c -0.60905,0.087 -1.47912,-0.60906 -2.00116,-1.39212 -0.52205,-0.87007 -0.43504,-1.56613 0.17401,-1.56613 l 7.04758,-0.34803 c 0.43504,-0.087 0.95708,0.17402 1.47913,0.69606 0.69605,0.69606 1.13109,1.56613 0.87007,2.00116 l -20.09867,35.93398 c 0,0.17401 -0.17401,0.26102 -0.43503,0.26102 z"
       id="text1"
       style="font-size:87.0072px;line-height:1.25;font-family:'Photograph Signature';-inkscape-font-specification:'Photograph Signature, Normal';text-align:end;text-anchor:end;stroke-width:0.529169"
       aria-label="[pietska]" />
    <path
       style="color:#000000;font-style:normal;font-variant:normal;font-weight:normal;font-stretch:normal;font-size:medium;line-height:normal;font-family:sans-serif;font-variant-ligatures:normal;font-variant-position:normal;font-variant-caps:normal;font-variant-numeric:normal;font-variant-alternates:normal;font-feature-settings:normal;text-indent:0;text-align:start;text-decoration:none;text-decoration-line:none;text-decoration-style:solid;text-decoration-color:#000000;letter-spacing:normal;word-spacing:normal;text-transform:none;writing-mode:lr-tb;direction:ltr;text-orientation:mixed;dominant-baseline:auto;baseline-shift:baseline;text-anchor:start;white-space:normal;shape-padding:0;clip-rule:nonzero;display:inline;overflow:visible;visibility:visible;opacity:1;isolation:auto;mix-blend-mode:normal;color-interpolation:sRGB;color-interpolation-filters:linearRGB;solid-color:#000000;solid-opacity:1;vector-effect:none;fill:#000000;fill-opacity:1;fill-rule:nonzero;stroke:none;stroke-width:10.8945;stroke-linecap:round;stroke-linejoin:miter;stroke-miterlimit:4;stroke-dasharray:none;stroke-dashoffset:0;stroke-opacity:1;color-rendering:auto;image-rendering:auto;shape-rendering:auto;text-rendering:auto;enable-background:accumulate"
       d="m 117.09766,54.619141 -11.45313,0.0918 7.30078,8.826171 c 14.54846,17.593485 17.88253,33.613736 16.66602,50.099608 -0.57811,7.83428 -2.32794,15.76997 -4.52539,23.8164 -5.0172,-27.54486 -14.24261,-36.52511 -27.743586,-42.164333 1.626612,8.388513 2.53824,19.222903 2.667416,26.138943 0.17609,11.64808 -7.325299,21.75126 -15.996098,34.49219 -8.665435,12.73307 -18.035828,28.12242 -17.679688,49.42188 0.03385,24.73135 21.713862,53.94988 67.437496,60.22265 -3.41988,-0.90939 -7.07819,-2.44445 -11.6289,-4.96484 -20.27158,-11.22733 -2.18405,-27.82455 8.54883,-41.58789 0.3788,13.38453 24.02295,32.20657 19.40234,9.10351 -3.57142,-17.85713 2.77211,-37.20037 12.93555,-49.35937 -4.02203,18.36592 6.2553,35.77371 18.04101,51.13086 10.31385,13.43928 -14.03094,35.65276 -30.71289,36.60547 -1.32245,0.0755 -2.56676,0.13942 -3.75976,0.18359 2.0414,0.0798 4.1179,0.12386 6.24023,0.11719 41.40679,0.96558 88.67669,-27.76842 88.875,-66.67231 0.19831,-38.90389 -11.63682,-59.20157 -35.42187,-83.25933 l -0.78711,12.09179 c -1.07915,16.58796 -4.16494,27.15512 -7.42579,34.04493 C 201.49442,136.85946 194.43941,112.40727 181.67188,93.5 165.76407,69.942366 141.30687,54.420701 117.09766,54.619141 Z"
       transform="matrix(0.52916668,0,0,0.52916668,-3.7487793e-7,-2.477417e-6)"
       id="path906" />
    <path
       style="font-weight:bold;font-size:84.6667px;line-height:1.25;font-family:'Graphik Web';-inkscape-font-specification:'Graphik Web Bold';text-align:center;letter-spacing:0px;word-spacing:0px;text-anchor:middle;stroke-width:0.529167"
       d="M 207.46923,60.949639 V 120.047 h 15.15534 V 98.710988 c 1.10067,2.201332 2.794,4.064002 5.16467,5.418672 2.286,1.43933 5.16467,2.11666 8.55134,2.11666 2.54,0 4.99533,-0.42333 7.28133,-1.43933 2.286,-0.93133 4.31801,-2.37067 6.01134,-4.318 1.69333,-1.862669 2.96333,-4.14867 3.97933,-7.027338 1.016,-2.878668 1.524,-6.180669 1.524,-10.075337 v -0.677334 c 0,-3.725335 -0.508,-7.112003 -1.524,-9.990671 -1.016,-2.878668 -2.286,-5.249335 -3.97933,-7.19667 -1.69333,-1.862667 -3.72534,-3.302001 -5.92667,-4.318001 -2.286,-0.931334 -4.74134,-1.439334 -7.28134,-1.439334 -3.38666,0 -6.26533,0.762 -8.46667,2.286001 -2.286,1.524 -4.064,3.386668 -5.334,5.503335 v -6.604002 z m 23.53734,33.697347 c -2.794,0 -4.99533,-0.931334 -6.51933,-2.794001 -1.524,-1.862668 -2.286,-4.741335 -2.286,-8.551337 v -0.677334 c 0,-3.725335 0.762,-6.519336 2.286,-8.46667 1.524,-1.947334 3.72533,-2.963335 6.51933,-2.963335 2.70934,0 4.82601,1.016001 6.35001,2.878668 1.524,1.862668 2.37067,4.741336 2.37067,8.636004 v 0.677334 c 0,3.725335 -0.76201,6.519336 -2.20134,8.382003 -1.524,1.947334 -3.64067,2.878668 -6.51934,2.878668 z m 43.09529,6.096004 -7.366,19.30401 h 14.478 l 23.70668,-59.097361 h -14.47801 l -8.46667,23.622009 -9.144,-23.622009 h -16.42534 z m 55.28742,5.50333 c 6.68867,0 11.93801,-1.35466 15.74801,-4.064 3.72534,-2.709332 6.01134,-6.519334 6.68867,-11.599336 h -14.22401 c -0.33866,1.524001 -1.016,2.709335 -2.20133,3.725335 -1.18533,1.016001 -2.96333,1.524001 -5.50334,1.524001 -2.70933,0 -4.91066,-0.762 -6.51933,-2.370668 -1.60867,-1.608667 -2.54,-3.894668 -2.70934,-6.858003 h 31.15735 v -3.979335 c 0,-3.894668 -0.67733,-7.366003 -1.86267,-10.244671 -1.18533,-2.878668 -2.794,-5.249335 -4.826,-7.112003 -2.11667,-1.862667 -4.48733,-3.217334 -7.19667,-4.148668 -2.70933,-0.846667 -5.588,-1.354667 -8.636,-1.354667 -3.38667,0 -6.51934,0.592667 -9.39801,1.608667 -2.96333,1.100667 -5.50333,2.624668 -7.62,4.656669 -2.20133,2.032 -3.89467,4.487335 -5.08,7.366003 -1.27,2.878668 -1.86267,6.011336 -1.86267,9.567337 v 0.677334 c 0,3.640668 0.59267,6.858003 1.778,9.652004 1.18534,2.878668 2.87867,5.249335 5.08,7.112001 2.032,1.94734 4.57201,3.38667 7.53534,4.40267 2.87867,1.016 6.096,1.43933 9.652,1.43933 z m 7.70467,-28.194008 h -16.256 c 0.33866,-2.709334 1.27,-4.741335 2.794,-6.180669 1.43933,-1.354667 3.302,-2.116667 5.67267,-2.116667 2.45533,0 4.318,0.762 5.67267,2.116667 1.27,1.439334 1.94733,3.471335 2.11666,6.180669 z m 42.16399,28.194008 c 7.11201,0 12.61534,-1.60866 16.34068,-4.99533 3.72533,-3.386669 5.67267,-7.874005 5.92667,-13.462007 h -13.63134 c -0.33867,2.455334 -1.10067,4.318002 -2.45534,5.503336 -1.35466,1.27 -3.13266,1.862667 -5.24933,1.862667 -2.87867,0 -5.08,-0.931334 -6.51934,-2.878668 -1.524,-1.947334 -2.20133,-4.910668 -2.20133,-8.805337 v -0.677333 c 0,-3.725335 0.67733,-6.519336 2.20133,-8.382004 1.43934,-1.862667 3.556,-2.878668 6.26534,-2.878668 2.20133,0 3.81,0.592667 4.91067,1.693334 1.10066,1.100667 1.86266,2.709335 2.20133,4.741336 h 14.22401 c -0.254,-3.386668 -1.016,-6.18067 -2.286,-8.551337 -1.27,-2.286001 -2.87867,-4.148669 -4.82601,-5.672669 -2.032,-1.354668 -4.23333,-2.370668 -6.77333,-3.048002 -2.54,-0.592667 -5.08,-0.931333 -7.78934,-0.931333 -3.302,0 -6.35,0.592667 -9.22867,1.608667 -2.87867,1.016 -5.334,2.540001 -7.45067,4.487335 -2.20133,2.032001 -3.89467,4.402669 -5.08,7.281337 -1.27,2.878668 -1.86267,6.180669 -1.86267,9.821337 v 0.677334 c 0,3.725335 0.59267,7.027336 1.778,9.821337 1.18534,2.878668 2.794,5.164669 4.91067,7.027338 2.032,1.94733 4.48734,3.38667 7.366,4.318 2.79401,1.016 5.84201,1.43933 9.22867,1.43933 z m 46.39737,0 c 6.096,0 11.00667,-1.18533 14.64734,-3.64066 3.556,-2.45534 5.41867,-6.350007 5.41867,-11.599342 0,-2.370668 -0.42333,-4.318002 -1.10067,-6.011336 -0.762,-1.608667 -1.86266,-2.963335 -3.38666,-4.148668 -1.52401,-1.016001 -3.47134,-1.862668 -5.75734,-2.540002 -2.286,-0.592666 -4.91067,-1.100667 -7.95867,-1.524 -2.70933,-0.338667 -4.65667,-0.762 -5.75734,-1.270001 -1.18533,-0.508 -1.69333,-1.27 -1.69333,-2.370667 0,-1.016001 0.42333,-1.778001 1.27,-2.455335 0.84667,-0.677333 2.032,-1.016 3.72534,-1.016 1.69333,0 3.048,0.423333 3.89466,1.100667 0.84667,0.762 1.43934,1.862667 1.778,3.302001 h 13.71601 c -0.33867,-2.624667 -1.016,-4.826002 -2.032,-6.688669 -1.016,-1.778001 -2.37067,-3.217335 -4.064,-4.402669 -1.69334,-1.100667 -3.72534,-1.947334 -6.01134,-2.455334 -2.286,-0.508 -4.74133,-0.762 -7.45067,-0.762 -2.54,0 -4.99533,0.338666 -7.28133,0.931333 -2.37067,0.592667 -4.31801,1.439334 -6.01134,2.624668 -1.778,1.270001 -3.13267,2.794001 -4.14867,4.656669 -1.016,1.862667 -1.524,3.979335 -1.524,6.350002 0,2.370668 0.254,4.318002 0.93133,5.92667 0.67734,1.693334 1.69334,3.048001 3.04801,4.064001 1.35466,1.185334 3.048,2.032001 5.16466,2.709335 2.11667,0.677333 4.65667,1.185334 7.70467,1.524 3.04801,0.508001 5.16467,1.016001 6.35001,1.524001 1.18533,0.592667 1.86266,1.439334 1.86266,2.455334 0,1.185334 -0.508,2.032001 -1.35466,2.709335 -0.84667,0.677334 -2.20134,0.931334 -4.064,0.931334 -2.20134,0 -3.72534,-0.423334 -4.57201,-1.270001 -0.84666,-0.846667 -1.43933,-2.032001 -1.69333,-3.725335 H 405.3353 c 0.16934,4.995336 1.94734,8.720671 5.50334,11.260669 3.556,2.54 8.46667,3.81 14.81667,3.81 z m 47.41332,0 c 7.112,0 12.61534,-1.60866 16.34067,-4.99533 3.72534,-3.386669 5.67267,-7.874005 5.92667,-13.462007 h -13.63134 c -0.33866,2.455334 -1.10066,4.318002 -2.45533,5.503336 -1.35467,1.27 -3.13267,1.862667 -5.24934,1.862667 -2.87867,0 -5.08,-0.931334 -6.51933,-2.878668 -1.524,-1.947334 -2.20134,-4.910668 -2.20134,-8.805337 v -0.677333 c 0,-3.725335 0.67734,-6.519336 2.20134,-8.382004 1.43933,-1.862667 3.556,-2.878668 6.26533,-2.878668 2.20134,0 3.81,0.592667 4.91067,1.693334 1.10067,1.100667 1.86267,2.709335 2.20134,4.741336 h 14.224 c -0.254,-3.386668 -1.016,-6.18067 -2.286,-8.551337 -1.27,-2.286001 -2.87867,-4.148669 -4.826,-5.672669 -2.032,-1.354668 -4.23334,-2.370668 -6.77334,-3.048002 -2.54,-0.592667 -5.08,-0.931333 -7.78933,-0.931333 -3.30201,0 -6.35001,0.592667 -9.22867,1.608667 -2.87867,1.016 -5.33401,2.540001 -7.45067,4.487335 -2.20134,2.032001 -3.89467,4.402669 -5.08001,7.281337 -1.27,2.878668 -1.86266,6.180669 -1.86266,9.821337 v 0.677334 c 0,3.725335 0.59266,7.027336 1.778,9.821337 1.18533,2.878668 2.794,5.164669 4.91067,7.027338 2.032,1.94733 4.48733,3.38667 7.366,4.318 2.794,1.016 5.842,1.43933 9.22867,1.43933 z m 41.14806,0 c 3.556,0 6.35,-0.59266 8.382,-1.86266 2.032,-1.18534 3.64067,-2.62467 4.74134,-4.31801 v 5.16467 h 14.732 V 76.528312 c 0,-2.878668 -0.508,-5.418669 -1.43933,-7.535337 -0.93133,-2.116667 -2.286,-3.894668 -3.97933,-5.249335 -1.77801,-1.354668 -3.89467,-2.286001 -6.35001,-2.963335 -2.45533,-0.677334 -5.16467,-1.016 -8.21267,-1.016 -3.048,0 -5.842,0.338666 -8.382,1.016 -2.54,0.677334 -4.65667,1.608667 -6.43467,2.878668 -1.86267,1.354667 -3.38667,3.048001 -4.48734,5.080002 -1.10066,2.032001 -1.69333,4.318002 -1.86266,6.94267 h 14.224 c 0.16934,-1.354668 0.67734,-2.624668 1.524,-3.640668 0.84667,-1.016001 2.37067,-1.608668 4.48734,-1.608668 2.37067,0 3.97933,0.677334 4.74133,1.947334 0.67734,1.270001 1.10067,2.963335 1.10067,5.080002 v 1.016001 h -4.23333 c -7.45067,0 -13.20801,1.185334 -17.35668,3.386668 -4.14867,2.201334 -6.18067,5.926669 -6.18067,11.091338 0,2.370668 0.33867,4.402668 1.18534,6.096003 0.84666,1.693335 1.94733,3.048005 3.38667,4.064005 1.35466,1.10066 2.87866,1.86266 4.74133,2.37066 1.778,0.508 3.64067,0.762 5.67267,0.762 z m 5.24934,-10.244667 c -1.86267,0 -3.13267,-0.338667 -3.97934,-1.100667 -0.84667,-0.677334 -1.27,-1.693334 -1.27,-3.048001 0,-1.778001 0.67733,-3.048001 2.11667,-3.725335 1.35466,-0.677334 3.64067,-1.100667 6.68867,-1.100667 h 3.97933 v 2.709334 c 0,1.947334 -0.762,3.471335 -2.20133,4.572002 -1.43934,1.185334 -3.21734,1.693334 -5.334,1.693334 z"
       id="text971"
       aria-label="pyecsca" />
  </g>
</svg>
