<?xml version="1.0" encoding="UTF-8" standalone="no"?>
<svg
   class="anaglyph-svg"
   width="400"
   height="125"
   viewBox="0 0 400 125"
   version="1.1"
   id="svg1"
   xmlns="http://www.w3.org/2000/svg"
   xmlns:svg="http://www.w3.org/2000/svg">
  <defs
     id="defs1" />
  <g
     transform="scale(1.3 1.3)"
     id="g1">
    <circle
       cx="60.848999"
       cy="25.961"
       r="5.8740001"
       id="circle1" />
    <ellipse
       transform="rotate(83.321 45.64056875 30.815676)"
       cx="45.639999"
       cy="30.816999"
       rx="3.349"
       ry="2.0139999"
       id="ellipse1" />
    <path
       d="M85.167 19.398C79.725 6.692 68.979 4.666 63.072 4.666c-7.711 0-17.432 5.882-20.17 15.757 2.485.584 4.776 2.18 5.814 4.767.649-1.674 1.113-3.356 1.915-4.857 2.927-5.477 9.022-8.125 14.565-6.454 5.434 1.638 9.167 7.028 8.651 12.491-.574 6.086-5.304 10.745-11.765 11.155-4.505.286-9.259.99-10.731 6.894-2.451-3.22-3.114-5.539-3.441-7.205-8.556 4.29-16.4 7.648-22.97 14.946-4.801 5.333-8.348 11.684-10.696 18.448-1.331 3.833-1.901 7.93-2.934 12.41 25.592 2.187 43.341-8.582 56.046-29.157C62.89 70.458 48.974 78.95 34.832 84.732c.758.509 5.798 1.367 5.798 1.367s2.451 4.053 2.811 4.612c-3.083.257-3.808 3.066-3.7 3.484h8.942c-.005-.005-.01-.011-.015-.016H67c.17-.418-2.56-3.595-4.535-3.467-4.458.287-5.713-2.416-7.494-5.757 17.634967-6.026223 30.69479-23.81897 31.827834-33.333639C87.931878 42.106692 88.920505 28.578246 85.167 19.398zM48.744 90.711l-3.357-4.612 5.672-.463 3.408 5.075z"
       id="path1" />
  </g>
  <path
     style="font-style:italic;font-weight:900;font-size:70px;line-height:1.25;font-family:Exo;text-align:center;text-anchor:middle"
     d="m 140.54673,38.52093 h 12.74 l 4.9,36.54 16.52,-36.54 h 12.6 l -2.03,52.01 h -13.09 l 1.12,-28 -11.34,28 h -12.74 l -2.45,-27.44 -7.56,27.44 h -13.44 z m 57.89001,9.52 q -0.77,0 -1.19,-0.42 -0.35,-0.49 -0.21,-1.19 l 1.19,-7.77 q 0.35,-1.75 1.96,-1.75 h 10.64 q 0.77,0 1.05,0.49 0.35,0.49 0.21,1.26 l -1.19,7.77 q -0.35,1.61 -1.82,1.61 z m -2.31,4.76 h 13.58 l -5.95,37.73 h -13.58 z m 19.60005,0 h 11.34 l 1.68,3.64 q 5.11,-4.06 11.83,-4.06 4.34,0 6.86,2.31 2.52,2.24 2.52,5.95 0,1.75 -0.14,3.5 -0.14,1.68 -0.7,5.11 l -3.36,21.28 h -13.58 l 3.29,-20.86 q 0.28,-1.75 0.28,-2.52 0,-2.59 -3.15,-2.59 -1.54,0 -3.01,0.7 -1.4,0.7 -2.52,1.89 l -3.71,23.38 h -13.58 z m 52.43002,38.15 q -7.91,0 -11.34,-3.71 -3.36,-3.71 -3.36,-10.92 0,-2.94 0.63,-6.72 1.47,-9.24 6.51,-13.23 5.04,-3.99 13.58,-3.99 6.44,0 10.71,2.59 4.27,2.59 4.27,9.24 0,7.56 -4.06,10.29 -3.99,2.73 -11.41,2.73 -4.34,0 -6.79,-0.56 -0.14,0.84 -0.14,1.4 0,1.54 1.68,2.31 1.68,0.7 5.25,0.7 h 12.53 l -1.26,7.91 q -7.84,1.96 -16.8,1.96 z m 2.31,-21.07 q 3.64,0 4.83,-0.98 1.26,-1.05 1.26,-3.22 0,-1.4 -0.84,-2.17 -0.84,-0.84 -2.45,-0.84 -2.24,0 -3.57,1.75 -1.33,1.68 -1.96,5.18 1.82,0.28 2.73,0.28 z m 25.69003,-17.08 h 12.18 l 0.63,5.04 q 2.1,-2.52 4.41,-3.99 2.31,-1.47 5.11,-1.47 1.89,0 3.22,0.35 l -2.03,13.58 h -4.06 q -2.73,0 -4.9,0.7 -2.17,0.7 -3.5,1.82 l -3.43,21.7 h -13.58 z m 26.59997,0 h 14 l 1.75,25.2 5.53,-13.93 q 1.33,-3.29 2.03,-5.88 0.7,-2.66 0.98,-5.95 h 12.67 q -0.14,4.2 -1.61,8.19 -1.4,3.99 -3.92,9.31 l -10.08,20.79 h -15.68 z m 46.5499,38.15 q -4.2,0 -6.93,-3.29 -2.73,-3.29 -2.73,-9.87 0,-2.52 0.84,-8.19 1.4,-8.68 6.3,-12.95 4.9,-4.27 14,-4.27 5.18,0 9.66,1.33 4.55,1.26 7.28,3.29 l -5.32,33.53 h -12.18 l -0.84,-3.64 q -1.61,1.61 -4.48,2.87 -2.8,1.19 -5.6,1.19 z m 6.93,-10.85 q 2.59,0 4.48,-2.03 l 2.31,-14.35 q -0.42,-0.14 -1.26,-0.28 -0.77,-0.21 -1.61,-0.21 -2.66,0 -4.27,1.89 -1.54,1.89 -2.1,5.25 -0.56,3.15 -0.56,4.9 0,4.83 3.01,4.83 z"
     id="text1"
     aria-label="Minerva" />
</svg>
