<?xml version="1.0" encoding="UTF-8" standalone="no"?>
<svg
   id="svg8"
   version="1.1"
   viewBox="0 0 255 99.999999"
   height="100mm"
   width="255mm"
   xmlns="http://www.w3.org/2000/svg"
   xmlns:svg="http://www.w3.org/2000/svg"
   xmlns:rdf="http://www.w3.org/1999/02/22-rdf-syntax-ns#"
   xmlns:cc="http://creativecommons.org/ns#"
   xmlns:dc="http://purl.org/dc/elements/1.1/">
  <defs
     id="defs2" />
  <metadata
     id="metadata5">
    <rdf:RDF>
      <cc:Work
         rdf:about="">
        <dc:format>image/svg+xml</dc:format>
        <dc:type
           rdf:resource="http://purl.org/dc/dcmitype/StillImage" />
        <dc:title />
      </cc:Work>
    </rdf:RDF>
  </metadata>
  <g
     transform="translate(-22.736985,0.46894136)"
     id="layer1">
    <path
       id="path833"
       d="M 50.638114,76.533884 103.70588,23.466115"
       style="fill:none;stroke:#000000;stroke-width:5.565;stroke-linecap:square;stroke-linejoin:miter;stroke-miterlimit:3.6;stroke-dasharray:none;stroke-opacity:1;paint-order:normal" />
    <circle
       r="7.5579939"
       cy="29.71076"
       cx="72.607689"
       id="path835"
       style="fill:#000000;fill-opacity:1;stroke-width:5.56501;stroke-linecap:square;stroke-linejoin:miter;stroke-miterlimit:3.6;stroke-dasharray:none;paint-order:normal" />
    <circle
       style="fill:#000000;fill-opacity:1;stroke-width:5.56499;stroke-linecap:square;stroke-linejoin:miter;stroke-miterlimit:3.6;stroke-dasharray:none;paint-order:normal"
       id="path835-3"
       cx="45.674847"
       cy="36.044785"
       r="2.9378617" />
    <circle
       style="fill:#000000;fill-opacity:1;stroke-width:5.56501;stroke-linecap:square;stroke-linejoin:miter;stroke-miterlimit:3.6;stroke-dasharray:none;paint-order:normal"
       id="path835-6"
       cx="51.382034"
       cy="55.882671"
       r="5.5205617" />
    <circle
       r="5.5205622"
       cy="50.014587"
       cx="246.51474"
       id="path835-6-7"
       style="fill:#000000;fill-opacity:1;stroke-width:5.56501;stroke-linecap:square;stroke-linejoin:miter;stroke-miterlimit:3.6;stroke-dasharray:none;paint-order:normal" />
    <circle
       r="2.9378617"
       cy="66.968452"
       cx="248.05252"
       id="path835-3-5"
       style="fill:#000000;fill-opacity:1;stroke-width:5.56498;stroke-linecap:square;stroke-linejoin:miter;stroke-miterlimit:3.6;stroke-dasharray:none;paint-order:normal" />
    <circle
       style="fill:#000000;fill-opacity:1;stroke-width:5.56501;stroke-linecap:square;stroke-linejoin:miter;stroke-miterlimit:3.6;stroke-dasharray:none;paint-order:normal"
       id="path835-35"
       cx="228.56245"
       cy="65.492371"
       r="3.3865001" />
    <path
       style="font-weight:bold;font-size:35.2778px;line-height:1.25;font-family:Inter;-inkscape-font-specification:'Inter Bold';letter-spacing:0px;word-spacing:0px;stroke-width:0.264583"
       d="m 108.4506,60.160554 q -2.96904,0 -5.11127,-1.202652 -2.1297,-1.21518 -3.28224,-3.43257 -1.152539,-2.229918 -1.152539,-5.274132 0,-2.969048 1.152539,-5.211493 1.15254,-2.242446 3.24466,-3.495209 2.10464,-1.252763 4.93588,-1.252763 1.9042,0 3.54532,0.613854 1.65365,0.601326 2.88136,1.816506 1.24023,1.21518 1.92925,3.056742 0.68902,1.829033 0.68902,4.284449 v 1.465732 H 101.03425 V 48.221724 H 112.259 q 0,-1.152542 -0.5011,-2.042003 -0.50111,-0.889462 -1.39057,-1.390567 -0.87693,-0.513633 -2.042,-0.513633 -1.21518,0 -2.15475,0.563744 -0.92705,0.551215 -1.45321,1.490787 -0.52616,0.927045 -0.53869,2.067059 v 3.144435 q 0,1.428149 0.52616,2.467943 0.53869,1.039793 1.51585,1.603536 0.97715,0.563743 2.31761,0.563743 0.88946,0 1.62859,-0.250552 0.73913,-0.250553 1.26529,-0.751658 0.52616,-0.501105 0.80177,-1.227708 l 4.93588,0.325719 q -0.37583,1.778923 -1.5409,3.106852 -1.15254,1.315401 -2.98157,2.054531 -1.81651,0.726602 -4.19676,0.726602 z m 21.00884,0 q -2.95652,0 -5.08622,-1.252763 -2.11717,-1.26529 -3.25718,-3.507736 -1.12749,-2.242445 -1.12749,-5.161383 0,-2.95652 1.14001,-5.186438 1.15254,-2.242445 3.26971,-3.495208 2.11717,-1.265291 5.03611,-1.265291 2.51805,0 4.40973,0.914517 1.89167,0.914517 2.9941,2.568164 1.10243,1.653647 1.21518,3.883565 h -5.03611 q -0.21297,-1.440677 -1.12748,-2.317611 -0.90199,-0.889462 -2.36773,-0.889462 -1.24023,0 -2.16728,0.676492 -0.91451,0.663964 -1.42815,1.941782 -0.51363,1.277818 -0.51363,3.094325 0,1.841561 0.50111,3.131907 0.51363,1.290345 1.44067,1.966837 0.92705,0.676492 2.16728,0.676492 0.91452,0 1.64112,-0.375829 0.73913,-0.375828 1.21518,-1.089903 0.48858,-0.726603 0.63891,-1.741341 h 5.03611 q -0.12528,2.204863 -1.20265,3.883565 -1.06485,1.666175 -2.944,2.605747 -1.87914,0.939572 -4.4473,0.939572 z m 20.69566,7.240969 q -2.59322,0 -4.44731,-0.714075 -1.84156,-0.701547 -2.93147,-1.916727 -1.0899,-1.21518 -1.41562,-2.731023 l 4.93589,-0.663964 q 0.22549,0.576271 0.71407,1.077376 0.48858,0.501105 1.29035,0.801768 0.81429,0.313191 1.97936,0.313191 1.74134,0 2.86883,-0.851879 1.14001,-0.839351 1.14001,-2.818716 V 56.37721 h -0.22549 q -0.35078,0.801768 -1.05232,1.515843 -0.70155,0.714075 -1.80398,1.16507 -1.10243,0.450994 -2.6308,0.450994 -2.16728,0 -3.94621,-1.00221 -1.76639,-1.014738 -2.81871,-3.094324 -1.0398,-2.092114 -1.0398,-5.286659 0,-3.269711 1.06485,-5.462046 1.06485,-2.192335 2.83125,-3.282239 1.77892,-1.089904 3.89609,-1.089904 1.61606,0 2.70597,0.551216 1.0899,0.538688 1.75386,1.352984 0.6765,0.801768 1.0398,1.578481 h 0.20044 v -3.232128 h 5.29919 V 59.97264 q 0,2.455415 -1.20266,4.109062 -1.20265,1.653647 -3.33235,2.48047 -2.11716,0.839351 -4.87324,0.839351 z m 0.11275,-11.901247 q 1.29034,0 2.1798,-0.638909 0.90199,-0.651436 1.37804,-1.854089 0.48858,-1.21518 0.48858,-2.90641 0,-1.691229 -0.47605,-2.931465 -0.47605,-1.252762 -1.37804,-1.941782 -0.90199,-0.68902 -2.19233,-0.68902 -1.31541,0 -2.21739,0.714075 -0.90199,0.701547 -1.36552,1.95431 -0.46352,1.252763 -0.46352,2.893882 0,1.666175 0.46352,2.881355 0.47605,1.202652 1.36552,1.866617 0.90198,0.651436 2.21739,0.651436 z m 22.32422,4.660278 q -2.96905,0 -5.11127,-1.202652 -2.1297,-1.21518 -3.28224,-3.43257 -1.15254,-2.229918 -1.15254,-5.274132 0,-2.969048 1.15254,-5.211493 1.15254,-2.242446 3.24465,-3.495209 2.10464,-1.252763 4.93589,-1.252763 1.9042,0 3.54532,0.613854 1.65364,0.601326 2.88135,1.816506 1.24024,1.21518 1.92926,3.056742 0.68902,1.829033 0.68902,4.284449 v 1.465732 h -16.24834 v -3.307294 h 11.22476 q 0,-1.152542 -0.50111,-2.042003 -0.5011,-0.889462 -1.39056,-1.390567 -0.87694,-0.513633 -2.04201,-0.513633 -1.21518,0 -2.15475,0.563744 -0.92704,0.551215 -1.45321,1.490787 -0.52616,0.927045 -0.53868,2.067059 v 3.144435 q 0,1.428149 0.52616,2.467943 0.53869,1.039793 1.51584,1.603536 0.97716,0.563743 2.31761,0.563743 0.88946,0 1.62859,-0.250552 0.73913,-0.250553 1.26529,-0.751658 0.52616,-0.501105 0.80177,-1.227708 l 4.93589,0.325719 q -0.37583,1.778923 -1.5409,3.106852 -1.15254,1.315401 -2.98158,2.054531 -1.8165,0.726602 -4.19675,0.726602 z M 190.2435,48.660191 v 11.124534 h -5.33677 V 40.542288 h 5.08621 v 3.394987 h 0.2255 q 0.63891,-1.678702 2.14223,-2.655857 1.50331,-0.989683 3.64554,-0.989683 2.00442,0 3.4952,0.876934 1.49079,0.876934 2.31762,2.505526 0.82682,1.616064 0.82682,3.85851 v 12.25202 h -5.33677 V 48.484804 q 0.0125,-1.766395 -0.90199,-2.756078 -0.91452,-1.00221 -2.51805,-1.00221 -1.07738,0 -1.9042,0.463522 -0.8143,0.463522 -1.27782,1.352984 -0.45099,0.876934 -0.46352,2.117169 z"
       id="text923"
       aria-label="ecgen" />
    <path
       style="fill:none;stroke:#000000;stroke-width:5.56501;stroke-linecap:square;stroke-linejoin:miter;stroke-miterlimit:3.6;stroke-dasharray:none;stroke-opacity:1;paint-order:normal"
       d="M 200.26019,76.533884 253.32796,23.466115"
       id="path833-6" />
  </g>
</svg>
