<?xml version="1.0" encoding="UTF-8" standalone="no"?>
<!-- Created with Inkscape (http://www.inkscape.org/) -->

<svg
   width="130mm"
   height="60mm"
   viewBox="0 0 130 60"
   version="1.1"
   id="svg5"
   xml:space="preserve"
   xmlns="http://www.w3.org/2000/svg"
   xmlns:svg="http://www.w3.org/2000/svg"><defs
     id="defs2" /><g
     id="layer2"
     transform="translate(-142.02441,-45.700615)"><path
       id="path1034"
       style="fill:#000000;stroke:none;stroke-width:0.264583px;stroke-linecap:butt;stroke-linejoin:miter;stroke-opacity:1"
       d="m 190.77778,64.64881 -41.06674,15.944763 v 4.996078 l 12.80593,-4.967139 V 89.9067 l 5.13354,1.681034 -14.90142,12.660216 11.25823,-3.10163 8.43876,-7.988656 13.31754,4.360457 8.57415,-2.212785 -18.72651,-5.143872 6.32159,-5.984647 V 73.091705 l 8.84494,-3.430797 z m -13.12943,10.104809 v 8.339544 l -6.7846,5.763988 -3.99407,-1.097091 v -8.825817 z" /><circle
       style="fill:#000000;stroke:none;stroke-width:1.265;stroke-linecap:round;stroke-linejoin:round;stroke-dashoffset:4.91526;paint-order:stroke fill markers"
       id="path1092"
       cx="172.40341"
       cy="81.520744"
       r="4.0687985" /><path
       style="fill:#000000;stroke:none;stroke-width:0.264583px;stroke-linecap:butt;stroke-linejoin:miter;stroke-opacity:1"
       d="m 163.3009,58.11646 -3.71752,1.446276 v 13.482976 l 3.71752,-1.439414 z"
       id="path1146" /><path
       style="fill:#000000;stroke:none;stroke-width:0.264583px;stroke-linecap:butt;stroke-linejoin:miter;stroke-opacity:1"
       d="m 171.0282,47.153282 -3.71752,1.446276 V 70.076 l 3.71752,-1.439414 z"
       id="path1274" /><path
       style="fill:#000000;stroke:none;stroke-width:0.264583px;stroke-linecap:butt;stroke-linejoin:miter;stroke-opacity:1"
       d="m 178.75549,56.899546 -3.71752,1.446276 v 8.687561 l 3.71752,-1.439414 z"
       id="path1276" /><path
       style="font-weight:bold;font-size:22.5778px;line-height:1.25;font-family:Hasklig;-inkscape-font-specification:'Hasklig Bold';text-align:end;text-anchor:end;stroke-width:0.264583"
       d="m 199.37261,81.30195 c 0.38383,-1.467557 0.79023,-3.18347 1.15147,-4.741338 h 0.0903 c 0.33867,1.557868 0.79023,3.273781 1.17405,4.741338 l 0.33867,1.354668 h -3.09316 z m -5.30578,7.450675 h 3.38667 l 0.90311,-3.49956 h 4.44783 l 0.88053,3.49956 h 3.52214 l -4.58329,-14.720727 h -3.9737 z m 22.10368,0.270933 c 1.49013,0 2.66418,-0.316089 3.6576,-0.6096 l -0.58702,-2.393247 c -0.67734,0.225778 -1.37725,0.4064 -2.21263,0.4064 -1.64818,0 -2.37067,-0.654756 -2.37067,-2.348091 v -3.928538 h 4.74134 v -2.596447 h -4.74134 V 74.12221 h -2.73191 l -0.42898,3.431825 -2.98027,0.135467 v 2.46098 h 2.82223 v 3.951116 c 0,2.935114 1.26435,4.92196 4.83165,4.92196 z m 13.70473,0 c 1.39982,0 2.19005,-0.225778 3.36409,-0.6096 l -0.74506,-2.438403 c -0.67734,0.270934 -1.21921,0.361245 -1.7385,0.361245 -0.94826,0 -1.8288,-0.451556 -1.8288,-1.828802 V 72.925586 h -6.84107 v 2.619025 h 3.52214 v 8.82792 c 0,2.844803 1.46755,4.651027 4.2672,4.651027 z m 9.68589,0 c 1.44498,0 2.8448,-0.677334 3.97369,-1.53529 h 0.0903 l 0.24836,1.264357 h 2.70933 v -6.412096 c 0,-3.431826 -1.91911,-5.057427 -5.05742,-5.057427 -1.91912,0 -3.70276,0.632178 -5.23805,1.512712 l 1.17404,2.167469 c 1.26436,-0.632178 2.32551,-1.038579 3.40925,-1.038579 1.51271,0 2.28036,0.609601 2.39325,1.625602 -5.30579,0.316089 -7.38294,1.580446 -7.38294,4.086582 0,1.896535 1.4224,3.38667 3.68018,3.38667 z m 1.06115,-2.573869 c -0.94826,0 -1.55787,-0.338667 -1.55787,-1.061157 0,-0.970845 0.90312,-1.670757 4.19948,-1.851379 v 1.851379 c -0.79023,0.609601 -1.64818,1.061157 -2.64161,1.061157 z m 14.11114,2.573869 c 3.58987,0 5.50898,-1.580446 5.50898,-3.612448 0,-1.828802 -0.94827,-2.799647 -4.40267,-3.58987 -1.89654,-0.428979 -2.59645,-0.564445 -2.59645,-1.196624 0,-0.519289 0.51929,-0.880534 1.55787,-0.880534 1.24178,0 2.52871,0.383823 3.6576,1.061157 l 1.49014,-1.986847 c -1.17405,-0.745067 -2.8448,-1.53529 -4.85423,-1.53529 -3.18347,0 -5.14774,1.422401 -5.14774,3.499559 0,1.738491 1.2192,2.844803 4.26721,3.499559 2.19004,0.474134 2.75449,0.699912 2.75449,1.33209 0,0.541867 -0.56445,0.948268 -1.78365,0.948268 -1.60302,0 -3.13831,-0.474134 -4.51556,-1.33209 l -1.4224,2.077157 c 1.4224,0.948268 3.47698,1.715913 5.48641,1.715913 z"
       id="text1"
       aria-label="Atlas" /></g></svg>
