<?xml version="1.0" encoding="UTF-8" standalone="no"?>
<!-- Created with Inkscape (http://www.inkscape.org/) -->

<svg
   width="60mm"
   height="60mm"
   viewBox="0 0 60 60"
   version="1.1"
   id="svg5"
   xml:space="preserve"
   xmlns="http://www.w3.org/2000/svg"
   xmlns:svg="http://www.w3.org/2000/svg"><defs
     id="defs2" /><g
     id="layer2"
     transform="translate(-142.02441,-45.700615)"><path
       id="path1034"
       style="fill:#000000;stroke:none;stroke-width:0.264583px;stroke-linecap:butt;stroke-linejoin:miter;stroke-opacity:1"
       d="m 190.77778,64.64881 -41.06674,15.944763 v 4.996078 l 12.80593,-4.967139 V 89.9067 l 5.13354,1.681034 -14.90142,12.660216 11.25823,-3.10163 8.43876,-7.988656 13.31754,4.360457 8.57415,-2.212785 -18.72651,-5.143872 6.32159,-5.984647 V 73.091705 l 8.84494,-3.430797 z m -13.12943,10.104809 v 8.339544 l -6.7846,5.763988 -3.99407,-1.097091 v -8.825817 z" /><circle
       style="fill:#000000;stroke:none;stroke-width:1.265;stroke-linecap:round;stroke-linejoin:round;stroke-dashoffset:4.91526;paint-order:stroke fill markers"
       id="path1092"
       cx="172.40341"
       cy="81.520744"
       r="4.0687985" /><path
       style="fill:#000000;stroke:none;stroke-width:0.264583px;stroke-linecap:butt;stroke-linejoin:miter;stroke-opacity:1"
       d="m 163.3009,58.11646 -3.71752,1.446276 v 13.482976 l 3.71752,-1.439414 z"
       id="path1146" /><path
       style="fill:#000000;stroke:none;stroke-width:0.264583px;stroke-linecap:butt;stroke-linejoin:miter;stroke-opacity:1"
       d="m 171.0282,47.153282 -3.71752,1.446276 V 70.076 l 3.71752,-1.439414 z"
       id="path1274" /><path
       style="fill:#000000;stroke:none;stroke-width:0.264583px;stroke-linecap:butt;stroke-linejoin:miter;stroke-opacity:1"
       d="m 178.75549,56.899546 -3.71752,1.446276 v 8.687561 l 3.71752,-1.439414 z"
       id="path1276" /></g></svg>
